<?xml version="1.0" standalone="no"?>
<!DOCTYPE svg PUBLIC "-//W3C//DTD SVG 20010904//EN"
 "http://www.w3.org/TR/2001/REC-SVG-20010904/DTD/svg10.dtd">
<svg version="1.0" xmlns="http://www.w3.org/2000/svg"
 width="1360.000000pt" height="1360.000000pt" viewBox="0 0 1360.000000 1360.000000"
 preserveAspectRatio="xMidYMid meet">

<g transform="translate(0.000000,1360.000000) scale(0.100000,-0.100000)"
fill="#000000" stroke="none">
<path d="M6535 13323 c-1308 -69 -2538 -547 -3515 -1366 -1188 -995 -1961
-2440 -2165 -4042 -84 -665 -79 -1389 15 -2045 282 -1974 1404 -3647 3064
-4570 755 -420 1549 -653 2491 -732 191 -15 815 -15 1000 0 857 74 1536 257
2240 602 1509 742 2630 2109 3125 3812 189 648 269 1309 257 2098 -7 454 -30
716 -97 1117 -186 1111 -678 2183 -1393 3033 -532 634 -1145 1113 -1899 1485
-722 357 -1449 547 -2306 605 -138 9 -665 11 -817 3z m755 -843 c1145 -79
2114 -461 2970 -1170 158 -130 473 -446 610 -610 735 -883 1167 -1916 1285
-3075 104 -1027 -26 -2033 -377 -2914 -276 -696 -691 -1332 -1203 -1845 -1140
-1144 -2758 -1657 -4465 -1415 -939 133 -1808 522 -2550 1143 -135 113 -441
418 -575 573 -607 705 -1029 1572 -1219 2508 -163 804 -165 1717 -5 2520 96
481 250 934 469 1380 465 946 1196 1734 2079 2239 702 403 1417 611 2301 670
115 7 550 5 680 -4z"/>
<path d="M6640 10805 l0 -275 270 0 270 0 0 275 0 275 -270 0 -270 0 0 -275z"/>
<path d="M9215 9970 l-190 -190 193 -193 192 -192 192 192 193 193 -190 190
c-104 104 -192 190 -195 190 -3 0 -91 -86 -195 -190z"/>
<path d="M4265 10020 c-121 -71 -221 -132 -222 -137 -2 -5 57 -113 130 -240
l133 -231 225 130 c123 71 228 133 233 138 10 10 -252 470 -268 469 -6 0 -110
-58 -231 -129z"/>
<path d="M6790 9500 c-505 -37 -970 -251 -1335 -615 -553 -551 -757 -1346
-540 -2101 58 -200 147 -383 301 -614 122 -185 197 -272 430 -505 116 -115
232 -238 258 -273 133 -176 200 -314 242 -502 28 -129 40 -264 54 -625 6 -154
15 -329 20 -390 6 -60 10 -122 10 -137 l0 -28 180 0 180 0 0 1185 0 1185 -175
0 -175 0 0 280 0 280 655 0 655 0 0 -280 0 -280 -175 0 -175 0 0 -1185 0
-1185 149 0 c83 0 152 3 154 8 5 6 9 88 37 672 18 367 54 526 168 735 89 164
317 416 502 552 143 107 331 294 436 435 629 848 544 2029 -201 2773 -308 309
-706 516 -1135 590 -82 14 -339 36 -390 33 -14 0 -72 -4 -130 -8z"/>
<path d="M3090 7545 l0 -275 270 0 270 0 0 275 0 275 -270 0 -270 0 0 -275z"/>
<path d="M10220 7545 l0 -275 270 0 270 0 0 275 0 275 -270 0 -270 0 0 -275z"/>
<path d="M6280 3080 l0 -270 615 0 615 0 0 270 0 270 -615 0 -615 0 0 -270z"/>
</g>
</svg>
